# AST/ASF file generated using VICON BodyLanguage
# -----------------------------------------------
:version 1.10
:name VICON
:units
  mass 1.0
  length 0.45
  angle deg
:documentation
   .ast/.asf automatically generated from VICON data using
   VICON BodyBuilder and BodyLanguage model FoxedUp or BRILLIANT.MOD
:root
   order TX TY TZ RX RY RZ
   axis XYZ
   position 0 0 0  
   orientation 0 0 0 
:bonedata
  begin
     id 1 
     name lhipjoint
     direction 0.677091 -0.635792 0.370561 
     length 2.74323 
     axis 0 0 0  XYZ
  end
  begin
     id 2 
     name lfemur
     direction 0.34202 -0.939693 0  
     length 7.44995  
     axis 0 0 20  XYZ
    dof rx ry rz
    limits (-160.0 20.0)
           (-70.0 70.0)
           (-60.0 70.0)
  end
  begin
     id 3 
     name ltibia
     direction 0.34202 -0.939693 0   
     length 7.34467   
     axis 0 0 20   XYZ
    dof rx
    limits (-10.0 170.0)
  end
  begin
     id 4 
     name lfoot
     direction 0.101953 -0.280114 0.954537   
     length 1.72105   
     axis -90 7.62852e-016 20   XYZ
    dof rx rz
    limits (-45.0 90.0)
           (-70.0 20.0)
  end
  begin
     id 5 
     name ltoes
     direction 1.53537e-011 -4.21915e-011 1   
     length 0.865872   
     axis -90 7.62852e-016 20   XYZ
    dof rx
    limits (-90.0 20.0)
  end
  begin
     id 6 
     name rhipjoint
     direction -0.695735 -0.620586 0.361699   
     length 2.81045  
     axis 0 0 0  XYZ 
  end
  begin
     id 7 
     name rfemur
     direction -0.34202 -0.939693 0   
     length 7.29387   
     axis 0 0 -20   XYZ
    dof rx ry rz
    limits (-160.0 20.0)
           (-70.0 70.0)
           (-70.0 60.0)
  end
  begin
     id 8 
     name rtibia
     direction -0.34202 -0.939693 0   
     length 7.44935   
     axis 0 0 -20   XYZ
    dof rx
    limits (-10.0 170.0)
 end
 begin
     id 9 
     name rfoot
     direction -0.104163 -0.286184 0.952496   
     length 1.77731  
     axis -90 -7.62852e-016 -20   XYZ
    dof rx rz
    limits (-45.0 90.0)
           (-20.0 70.0)
  end
  begin
     id 10 
     name rtoes
     direction -1.5355e-011 -4.21888e-011 1   
     length 0.892424   
     axis -90 -7.62852e-016 -20   XYZ
    dof rx
    limits (-90.0 20.0)
  end
  begin
     id 11 
     name lowerback
     direction 0.0100202 0.997226 -0.0737589   
     length 2.16892   
     axis 0 0 0   XYZ
    dof rx ry rz
    limits (-20.0 45.0)
           (-30.0 30.0)
           (-30.0 30.0)
  end
  begin
     id 12 
     name upperback
     direction 0.00432398 0.999988 -0.00215019   
     length 2.17326   
     axis 0 0 0   XYZ
    dof rx ry rz
    limits (-20.0 45.0)
           (-30.0 30.0)
           (-30.0 30.0)
  end
  begin
     id 13 
     name thorax
     direction -0.00195047 0.999485 0.0320434   
     length 2.18139   
     axis 0 0 0   XYZ
    dof rx ry rz
    limits (-20.0 45.0)
           (-30.0 30.0)
           (-30.0 30.0)
  end
  begin
     id 14 
     name lowerneck
     direction 0.00782762 0.986241 0.165128   
     length 1.88415   
     axis 0 0 0   XYZ
    dof rx ry rz
    limits (-20.0 45.0)
           (-30.0 30.0)
           (-30.0 30.0)
  end
  begin
     id 15 
     name upperneck
     direction 0.00988667 0.981098 -0.193258   
     length 1.9242   
     axis 0 0 0   XYZ
    dof rx ry rz
    limits (-20.0 45.0)
           (-30.0 30.0)
           (-30.0 30.0)
  end
  begin
     id 16
     name head
     direction 0.00252199 0.996513 -0.0833958  
     length 1.93887  
     axis 0 0 0   XYZ
    dof rx ry rz
    limits (-20.0 45.0)
           (-30.0 30.0)
           (-30.0 30.0)
  end
  begin
     id 17 
     name lclavicle
     direction 0.929492 0.368193 -0.0218667  
     length 3.5955  
     axis 0 0 0   XYZ
    dof ry rz
    limits (-20.0 10.0)
           (0.0 20.0)
  end
  begin
     id 18 
     name lhumerus
     direction 1 -4.48972e-011 1.41911e-027   
     length 5.2795   
     axis 180 -30 -90   XYZ
    dof rx ry rz
    limits (-60.0 90.0)
           (-90.0 90.0)
           (-90.0 90.0)
  end
  begin
     id 19
     name lradius
     direction 1 -4.48963e-011 7.05772e-027   
     length 3.53504   
     axis 180 -30 -90   XYZ
    dof rx
    limits (-10.0 170.0)
  end
  begin
     id 20
     name lwrist
     direction 1 -4.48957e-011 9.54866e-027   
     length 1.76752   
     axis -7.69462e-015 90 90   XYZ
    dof ry
    limits (-180.0 0.0)
 end
  begin
     id 21 
     name lhand
     direction 1 -4.48979e-011 1.90973e-026   
     length 0.667948   
     axis -1.21857e-014 90 90   XYZ
    dof rx rz
    limits (-90.0 90.0)
           (-45.0 45.0)
  end
  begin
     id 22 
     name lfingers
     direction 1 -4.48987e-011 3.81946e-026   
     length 0.538517   
     axis -2.43714e-014 90 90   XYZ
    dof rx
    limits (0.0 90.0)
  end
  begin
     id 23
     name lthumb
     direction 0.707107 -6.34962e-011 0.707107   
     length 0.773206   
     axis -90 45 2.85299e-015   XYZ
    dof rx rz
    limits (-45.0 45.0)
           (-45.0 45.0)
  end
  begin
     id 24 
     name rclavicle
     direction -0.898763 0.414256 -0.143584   
     length 3.5176  
     axis 0 0 0   XYZ 
    dof ry rz
    limits (-10.0 20.0)
           (-20.0 0.0)
  end
  begin
     id 25 
     name rhumerus
     direction -1 -4.48971e-011 1.129e-027  
     length 5.25035   
     axis 180 30 90   XYZ
    dof rx ry rz
    limits (-90.0 60.0)
           (-90.0 90.0)
           (-90.0 90.0)
  end
  begin
     id 26 
     name rradius
     direction -1 -4.48955e-011 6.34664e-027   
     length 3.58884   
     axis 180 30 90   XYZ
    dof rx
    limits (-10.0 170.0)
  end
  begin
     id 27 
     name rwrist
     direction -1 -4.48966e-011 9.54866e-027   
     length 1.79442   
     axis -7.69462e-015 -90 -90   XYZ
    dof ry
    limits (-180.0 0.0)
  end
  begin
     id 28
     name rhand
     direction -1 -4.48973e-011 1.90973e-026   
     length 0.779235   
     axis -1.21857e-014 -90 -90   XYZ
    dof rx rz
    limits (-90.0 90.0)
           (-45.0 45.0)
  end
  begin
     id 29
     name rfingers
     direction -1 -4.48984e-011 3.81946e-026   
     length 0.62824   
     axis -2.43714e-014 -90 -90   XYZ
    dof rx
    limits (0.0 90.0)
  end
  begin
     id 30
     name rthumb
     direction -0.707107 -6.34968e-011 0.707107   
     length 0.90203   
     axis -90 -45 -2.85299e-015   XYZ
    dof rx rz
    limits (-45.0 45.0)
           (-45.0 45.0)
  end
:hierarchy
  begin
    root lhipjoint rhipjoint lowerback
    lhipjoint lfemur
    lfemur ltibia
    ltibia lfoot
    lfoot ltoes
    rhipjoint rfemur
    rfemur rtibia
    rtibia rfoot
    rfoot rtoes
    lowerback upperback
    upperback thorax
    thorax lowerneck lclavicle rclavicle
    lowerneck upperneck
    upperneck head
    lclavicle lhumerus
    lhumerus lradius
    lradius lwrist
    lwrist lhand lthumb
    lhand lfingers
    rclavicle rhumerus
    rhumerus rradius
    rradius rwrist
    rwrist rhand rthumb
    rhand rfingers
  end

#!OML:ASF I:\Random Stuff\random\construction\7_22_03\Session 2\subj1.ASF
:FULLY-SPECIFIED
:DEGREES
863
root 5.45532 17.7995 0.566298 363.601 110.373 352.941
lowerback 1.54737 4.01818 3.76795
upperback -0.205651 5.65176 4.86311
thorax -1.21243 2.88493 2.74922
lowerneck -21.0265 -0.939498 5.2678
upperneck 47.0806 -5.13478 12.3416
head 25.9844 2.10166 5.83652
rclavicle -3.02153e-014 -8.5875e-014
rhumerus -22.4672 13.5323 -60.4214
rradius 43.1984
rwrist 9.85701
rhand -18.616 28.7922
rfingers 7.12502
rthumb 7.6758 -1.04851
lclavicle -3.02153e-014 -8.5875e-014
lhumerus 11.3156 22.9746 26.5636
lradius 102.956
lwrist 91.6752
lhand -11.8139 64.9495
lfingers 7.12502
lthumb 14.2363 625.558
rfemur -4.2808 13.2103 20.7304
rtibia 12.658
rfoot -29.1339 -49.1445
rtoes 27.839
lfemur -19.5116 -19.5463 -15.7724
ltibia 17.1198
lfoot -8.34383 2.27619
ltoes -34.3806
864
root 5.46576 17.8005 0.566816 363.821 110.419 353.14
lowerback 1.52099 3.98843 3.82118
upperback -0.204876 5.60704 4.80027
thorax -1.18433 2.8608 2.65873
lowerneck -21.0643 -0.969032 5.16571
upperneck 47.2807 -5.12602 12.4559
head 26.2826 2.10549 6.00785
rclavicle 2.26615e-014 -1.59028e-014
rhumerus -23.6734 15.8301 -60.6999
rradius 45.5489
rwrist 9.78194
rhand -17.5972 26.6533
rfingers 7.12502
rthumb 8.65905 -3.14906
lclavicle 2.26615e-014 -1.59028e-014
lhumerus 10.867 22.6712 27.0123
lradius 103.799
lwrist 90.8774
lhand -11.6894 64.5648
lfingers 7.12502
lthumb 14.3563 625.952
rfemur -4.21852 13.0706 20.8189
rtibia 12.5244
rfoot -29.0928 -49.0534
rtoes 27.9735
lfemur -19.5572 -19.5538 -15.6761
ltibia 17.1708
lfoot -8.41766 2.25818
ltoes -34.2154
865
root 5.47538 17.8031 0.569734 363.969 110.436 353.285
lowerback 1.52849 3.9467 3.84332
upperback -0.183161 5.54484 4.717
thorax -1.15426 2.82745 2.56296
lowerneck -21.0321 -0.976982 5.25308
upperneck 47.3721 -5.10506 12.3278
head 26.3486 2.11848 5.93351
rclavicle -4.6118e-014 -6.36111e-015
rhumerus -24.9403 18.2543 -61.0282
rradius 48.3922
rwrist 9.65119
rhand -16.6421 25.3145
rfingers 7.12502
rthumb 9.5807 -4.44763
lclavicle -4.6118e-014 -6.36111e-015
lhumerus 10.3941 22.4717 27.3661
lradius 104.689
lwrist 90.3424
lhand -11.6319 64.3256
lfingers 7.12502
lthumb 14.4117 626.195
rfemur -4.15975 12.9811 20.8928
rtibia 12.415
rfoot -28.9531 -49.0029
rtoes 28.078
lfemur -19.5694 -19.5026 -15.6122
ltibia 17.2136
lfoot -8.5011 2.17788
ltoes -33.9817
866
root 5.48318 17.8046 0.572839 364.08 110.436 353.403
lowerback 1.55869 3.90059 3.85875
upperback -0.14188 5.4769 4.63365
thorax -1.11749 2.79134 2.47006
lowerneck -20.9921 -0.984545 5.27233
upperneck 47.3748 -5.09447 12.2477
head 26.311 2.11423 5.87249
rclavicle 9.46215e-014 -2.22639e-014
rhumerus -26.2397 20.5611 -61.3382
rradius 51.6347
rwrist 9.64118
rhand -15.7785 24.4422
rfingers 7.12502
rthumb 10.4138 -5.27992
lclavicle 9.46215e-014 -2.22639e-014
lhumerus 9.95993 22.2933 27.6732
lradius 105.514
lwrist 89.9182
lhand -11.6736 63.9725
lfingers 7.12502
lthumb 14.3715 626.545
rfemur -4.14485 12.6445 20.955
rtibia 12.3849
rfoot -28.4116 -48.8523
rtoes 27.4961
lfemur -19.5423 -19.472 -15.5626
ltibia 17.2048
lfoot -8.51217 2.15842
ltoes -34.1243
867
root 5.49154 17.8045 0.575619 364.266 110.387 353.608
lowerback 1.57729 3.85752 3.86049
upperback -0.0982829 5.41351 4.57506
thorax -1.07588 2.75839 2.41098
lowerneck -20.9773 -0.974707 5.09763
upperneck 47.4169 -5.04361 12.4059
head 26.388 2.11121 6.04088
rclavicle 2.82274e-014 1.74931e-014
rhumerus -27.4986 22.6765 -61.6241
rradius 55.1965
rwrist 9.51771
rhand -14.9672 23.5489
rfingers 7.12502
rthumb 11.1964 -6.1323
lclavicle 2.82274e-014 1.74931e-014
lhumerus 9.49393 22.1198 27.961
lradius 106.298
lwrist 89.538
lhand -11.5933 63.2913
lfingers 7.12502
lthumb 14.4489 627.232
rfemur -4.18716 12.0451 21.0462
rtibia 12.4502
rfoot -27.4754 -48.5484
rtoes 26.0816
lfemur -19.4653 -19.5416 -15.4624
ltibia 17.1321
lfoot -8.45208 2.33704
ltoes -34.6731
868
root 5.49808 17.8063 0.578466 364.395 110.321 353.722
lowerback 1.56666 3.78921 3.80743
upperback -0.0585863 5.31296 4.5118
thorax -1.02595 2.70704 2.38004
lowerneck -20.8716 -0.902669 5.25167
upperneck 47.4251 -4.90609 12.1762
head 26.2633 2.15905 5.8732
rclavicle -1.59028e-014 1.43125e-014
rhumerus -28.5924 24.472 -61.8491
rradius 59.0253
rwrist 9.06946
rhand -14.0631 22.6752
rfingers 7.12502
rthumb 12.0683 -6.9568
lclavicle -1.59028e-014 1.43125e-014
lhumerus 8.91755 22.0026 28.1088
lradius 107.074
lwrist 89.2416
lhand -11.4984 62.7209
lfingers 7.12502
lthumb 14.5404 627.809
rfemur -4.29286 11.4763 21.0801
rtibia 12.5542
rfoot -26.5566 -48.2397
rtoes 24.8276
lfemur -19.416 -19.6209 -15.3837
ltibia 17.0426
lfoot -8.37608 2.51274
ltoes -34.9885
869
root 5.5002 17.8094 0.581573 364.382 110.278 353.646
lowerback 1.5621 3.72489 3.72774
upperback -0.0354403 5.21639 4.41222
thorax -0.995435 2.65662 2.32511
lowerneck -20.8517 -0.814399 5.43288
upperneck 47.5193 -4.72099 11.8802
head 26.2762 2.22339 5.70384
rclavicle -3.22031e-014 -2.38542e-014
rhumerus -29.6298 25.8783 -61.9854
rradius 63.1666
rwrist 8.45569
rhand -13.268 21.6773
rfingers 7.12502
rthumb 12.8348 -7.90815
lclavicle -3.22031e-014 -2.38542e-014
lhumerus 8.60701 21.8271 28.2686
lradius 107.659
lwrist 88.851
lhand -11.5422 62.4724
lfingers 7.12502
lthumb 14.4981 628.054
rfemur -4.43882 11.0544 21.02
rtibia 12.652
rfoot -25.9396 -47.9763
rtoes 24.37
lfemur -19.4285 -19.7393 -15.3507
ltibia 16.9674
lfoot -8.35656 2.65354
ltoes -34.8727
